<svg width="18" height="18" viewBox="0 0 18 18" fill="none" xmlns="http://www.w3.org/2000/svg">
<g clip-path="url(#clip0_2653_15102)">
<path d="M8.04883 3.80663C9.79587 3.59843 11.563 3.96774 13.0805 4.85816C14.5979 5.74859 15.7822 7.11118 16.4526 8.73788C16.5151 8.90626 16.5151 9.09149 16.4526 9.25988C16.177 9.92812 15.8127 10.5563 15.3696 11.1274" stroke="black" stroke-width="1.5" stroke-linecap="round" stroke-linejoin="round"/>
<path d="M10.5631 10.618C10.1387 11.0279 9.57039 11.2547 8.98045 11.2495C8.39051 11.2444 7.82618 11.0078 7.40901 10.5906C6.99184 10.1734 6.75521 9.60912 6.75009 9.01918C6.74496 8.42923 6.97175 7.86088 7.3816 7.43652" stroke="black" stroke-width="1.5" stroke-linecap="round" stroke-linejoin="round"/>
<path d="M13.1096 13.1243C12.1147 13.7137 11.0047 14.0821 9.8549 14.2046C8.70507 14.3272 7.54234 14.2009 6.4456 13.8345C5.34886 13.4681 4.34377 12.87 3.49854 12.0809C2.6533 11.2918 1.98769 10.3301 1.54688 9.26109C1.48437 9.0927 1.48437 8.90747 1.54688 8.73909C2.21185 7.12648 3.38188 5.77302 4.88138 4.88184" stroke="black" stroke-width="1.5" stroke-linecap="round" stroke-linejoin="round"/>
<path d="M1.5 1.5L16.5 16.5" stroke="black" stroke-width="1.5" stroke-linecap="round" stroke-linejoin="round"/>
</g>
<defs>
<clipPath id="clip0_2653_15102">
<rect width="18" height="18" fill="white"/>
</clipPath>
</defs>
</svg>
